<?xml version="1.0" encoding="UTF-8"?>
<svg id="Camada_1" data-name="Camada 1" xmlns="http://www.w3.org/2000/svg" viewBox="0 0 200 96.6">
  <defs>
    <style>
      .cls-1 {
        fill: #00c1d5;
      }

      .cls-2 {
        fill: #409;
      }
    </style>
  </defs>
  <g id="LOGO_W2A_2" data-name="LOGO W2A 2">
    <g>
      <path class="cls-1" d="M186.8,31.27l-5.1-12.69h-6.24l4.43,11.03h-4.63l-4.43-11.03h-6.24l4.43,11.03h-4.63l-4.43-11.03h-6.24l4.43,11.03h-6.96c-1.89,0-3.17,1.9-2.47,3.65l8.01,19.84h6.24l-7.31-18.18h4.6l7.34,18.18h6.24l-7.31-18.18h4.6l7.34,18.18h6.24l-7.3-18.18h6.93c1.88,0,3.17-1.9,2.46-3.65"/>
      <g>
        <path class="cls-2" d="M126.65,21.51c-.72-1.77-2.45-2.93-4.36-2.93h-2.1c-1.91,0-3.64,1.16-4.36,2.93l-12.45,30.49c-.21.52.17,1.1.74,1.1h6.46c.54,0,1.03-.33,1.23-.83l1.81-4.49h15.25l1.81,4.49c.2.5.69.83,1.23.83h6.46c.57,0,.95-.57.74-1.1l-12.45-30.49ZM116.51,40.55l4.73-11.77,4.73,11.77h-9.46Z"/>
        <path class="cls-2" d="M79.02,45.35h21.83c.59,0,1.06.48,1.06,1.06v5.62c0,.59-.48,1.07-1.06,1.07h-29.72c-.59,0-1.07-.49-1.06-1.08v-7.87c0-3.87,2.53-6.31,7.39-7.64l16.15-4.42v-2.77c0-1.99-1.22-2.99-2.99-2.99h-7.63c-1.77,0-2.99.99-2.99,2.99v.04c0,.59-.47,1.07-1.06,1.07h-6.72c-.59,0-1.06-.48-1.06-1.07v-1.37c0-5.53,2.43-9.4,11.84-9.4h7.63c9.4,0,11.84,3.87,11.84,9.4v3.21c0,3.65.11,6.42-6.08,8.19l-17.37,4.76v1.22Z"/>
        <path class="cls-2" d="M21.59,19.36l10.57,25.99h1.27v-25.59c0-.59.48-1.07,1.06-1.07h10.26c.43,0,.82.26.98.66l10.57,25.99h1.27v-25.59c0-.59.48-1.07,1.06-1.07h6.72c.59,0,1.06.48,1.06,1.07v32.27c0,.59-.48,1.06-1.06,1.06h-11.5c-2.05,0-3.89-1.25-4.66-3.14l-6.92-17.21v19.29c0,.59-.48,1.06-1.06,1.06h-11.5c-2.05,0-3.89-1.25-4.66-3.15l-11.97-29.79c-.28-.7.23-1.46.99-1.46h6.54c.43,0,.82.26.99.66"/>
        <polygon class="cls-2" points="51.67 69.28 49.2 69.28 49.2 67.84 55.83 67.84 55.83 69.28 53.37 69.28 53.37 77.83 51.67 77.83 51.67 69.28"/>
        <path class="cls-2" d="M58.21,70.5c0-1.6,1-2.66,3.04-2.66h2.71v1.45h-2.68c-1.05,0-1.36.47-1.36,1.33v1.37h3.61v1.43h-3.61v1.65c0,.87.31,1.32,1.36,1.32h2.74v1.1c0,.21-.13.34-.35.34h-2.42c-2.02,0-3.04-1.06-3.04-2.65v-4.68Z"/>
        <path class="cls-2" d="M67.09,67.84h1.7v8.55h4.4v1.1c0,.22-.13.34-.35.34h-5.76v-10Z"/>
        <path class="cls-2" d="M75.79,70.5c0-1.6,1-2.66,3.04-2.66h2.71v1.45h-2.68c-1.05,0-1.36.47-1.36,1.33v1.37h3.61v1.43h-3.61v1.65c0,.87.31,1.32,1.36,1.32h2.74v1.1c0,.21-.13.34-.34.34h-2.42c-2.02,0-3.04-1.06-3.04-2.65v-4.68Z"/>
        <path class="cls-2" d="M84.31,71.36c0-2.38,1.39-3.71,3.67-3.71.97,0,1.88.14,2.84.43l-.3,1.39c-.77-.23-1.53-.37-2.34-.37-1.46,0-2.12.77-2.12,2.42v2.65c0,1.63.66,2.41,2.12,2.41.92,0,1.55-.15,2.34-.36l.3,1.37c-.86.26-1.7.43-2.84.43-2.28,0-3.67-1.3-3.67-3.7v-2.96Z"/>
        <path class="cls-2" d="M93.24,71.85c0-2.45,1.45-4.2,3.92-4.2s3.92,1.75,3.92,4.2v1.98c0,2.46-1.45,4.2-3.92,4.2s-3.92-1.73-3.92-4.2v-1.98ZM97.17,76.57c1.71,0,2.18-1.35,2.18-2.91v-1.66c0-1.55-.47-2.91-2.18-2.91s-2.18,1.36-2.18,2.91v1.66c0,1.56.49,2.91,2.18,2.91Z"/>
        <path class="cls-2" d="M104.99,67.84h1.88l2.18,7.48c.07.23.14.37.29.37s.21-.14.29-.37l2.16-7.48h1.88l1.26,10h-1.7l-.63-5.31c-.06-.47-.1-1.13-.13-1.75-.13.64-.27,1.3-.41,1.79l-.83,2.95c-.27.95-.77,1.68-1.88,1.68s-1.62-.73-1.88-1.68l-.85-3.02c-.14-.49-.32-1.17-.43-1.81-.04.66-.07,1.36-.13,1.86l-.61,5.28h-1.71l1.26-10Z"/>
      </g>
    </g>
  </g>
</svg>